<svg xmlns="http://www.w3.org/2000/svg" width="194" height="194" viewbox="0 0 194 194" preserveAspectRatio="none"><rect x="0" y="0" width="100%" height="100%" fill="rgb(141, 65, 130)" /><polyline points="0, 0, 24.333333333333, 24.333333333333, 0, 24.333333333333, 0, 0" stroke="#000" stroke-opacity="0.02" fill-opacity="0.054666666666667" fill="#ddd" transform="translate(0, 24.333333333333) scale(1, -1)" /><polyline points="0, 0, 24.333333333333, 24.333333333333, 0, 24.333333333333, 0, 0" stroke="#000" stroke-opacity="0.02" fill-opacity="0.054666666666667" fill="#ddd" transform="translate(48.666666666667, 24.333333333333) scale(-1, -1)" /><polyline points="0, 0, 24.333333333333, 24.333333333333, 0, 24.333333333333, 0, 0" stroke="#000" stroke-opacity="0.02" fill-opacity="0.054666666666667" fill="#ddd" transform="translate(0, 24.333333333333) scale(1, 1)" /><polyline points="0, 0, 24.333333333333, 24.333333333333, 0, 24.333333333333, 0, 0" stroke="#000" stroke-opacity="0.02" fill-opacity="0.054666666666667" fill="#ddd" transform="translate(48.666666666667, 24.333333333333) scale(-1, 1)" /><polyline points="0, 0, 24.333333333333, 24.333333333333, 0, 24.333333333333, 0, 0" stroke="#000" stroke-opacity="0.02" fill-opacity="0.02" fill="#ddd" transform="translate(73, 0) scale(-1, 1)" /><polyline points="0, 0, 24.333333333333, 24.333333333333, 0, 24.333333333333, 0, 0" stroke="#000" stroke-opacity="0.02" fill-opacity="0.02" fill="#ddd" transform="translate(73, 48.666666666667) scale(1, -1)" /><polyline points="0, 0, 24.333333333333, 24.333333333333, 0, 24.333333333333, 0, 0" stroke="#000" stroke-opacity="0.02" fill-opacity="0.15" fill="#222" transform="translate(73, 48.666666666667) scale(-1, -1)" /><polyline points="0, 0, 24.333333333333, 24.333333333333, 0, 24.333333333333, 0, 0" stroke="#000" stroke-opacity="0.02" fill-opacity="0.15" fill="#222" transform="translate(73, 0) scale(1, 1)" /><polyline points="0, 0, 24.333333333333, 24.333333333333, 0, 24.333333333333, 0, 0" stroke="#000" stroke-opacity="0.02" fill-opacity="0.15" fill="#222" transform="translate(97.333333333333, 24.333333333333) scale(1, -1)" /><polyline points="0, 0, 24.333333333333, 24.333333333333, 0, 24.333333333333, 0, 0" stroke="#000" stroke-opacity="0.02" fill-opacity="0.15" fill="#222" transform="translate(146, 24.333333333333) scale(-1, -1)" /><polyline points="0, 0, 24.333333333333, 24.333333333333, 0, 24.333333333333, 0, 0" stroke="#000" stroke-opacity="0.02" fill-opacity="0.15" fill="#222" transform="translate(97.333333333333, 24.333333333333) scale(1, 1)" /><polyline points="0, 0, 24.333333333333, 24.333333333333, 0, 24.333333333333, 0, 0" stroke="#000" stroke-opacity="0.02" fill-opacity="0.15" fill="#222" transform="translate(146, 24.333333333333) scale(-1, 1)" /><polyline points="0, 0, 24.333333333333, 24.333333333333, 0, 24.333333333333, 0, 0" stroke="#000" stroke-opacity="0.02" fill-opacity="0.054666666666667" fill="#ddd" transform="translate(170.33333333333, 0) scale(-1, 1)" /><polyline points="0, 0, 24.333333333333, 24.333333333333, 0, 24.333333333333, 0, 0" stroke="#000" stroke-opacity="0.02" fill-opacity="0.054666666666667" fill="#ddd" transform="translate(170.33333333333, 48.666666666667) scale(1, -1)" /><polyline points="0, 0, 24.333333333333, 24.333333333333, 0, 24.333333333333, 0, 0" stroke="#000" stroke-opacity="0.02" fill-opacity="0.14133333333333" fill="#ddd" transform="translate(170.33333333333, 48.666666666667) scale(-1, -1)" /><polyline points="0, 0, 24.333333333333, 24.333333333333, 0, 24.333333333333, 0, 0" stroke="#000" stroke-opacity="0.02" fill-opacity="0.14133333333333" fill="#ddd" transform="translate(170.33333333333, 0) scale(1, 1)" /><polyline points="0, 0, 24.333333333333, 24.333333333333, 0, 24.333333333333, 0, 0" stroke="#000" stroke-opacity="0.02" fill-opacity="0.14133333333333" fill="#ddd" transform="translate(24.333333333333, 48.666666666667) scale(-1, 1)" /><polyline points="0, 0, 24.333333333333, 24.333333333333, 0, 24.333333333333, 0, 0" stroke="#000" stroke-opacity="0.02" fill-opacity="0.14133333333333" fill="#ddd" transform="translate(24.333333333333, 97.333333333333) scale(1, -1)" /><polyline points="0, 0, 24.333333333333, 24.333333333333, 0, 24.333333333333, 0, 0" stroke="#000" stroke-opacity="0.02" fill-opacity="0.15" fill="#222" transform="translate(24.333333333333, 97.333333333333) scale(-1, -1)" /><polyline points="0, 0, 24.333333333333, 24.333333333333, 0, 24.333333333333, 0, 0" stroke="#000" stroke-opacity="0.02" fill-opacity="0.15" fill="#222" transform="translate(24.333333333333, 48.666666666667) scale(1, 1)" /><polyline points="0, 0, 24.333333333333, 24.333333333333, 0, 24.333333333333, 0, 0" stroke="#000" stroke-opacity="0.02" fill-opacity="0.15" fill="#222" transform="translate(48.666666666667, 73) scale(1, -1)" /><polyline points="0, 0, 24.333333333333, 24.333333333333, 0, 24.333333333333, 0, 0" stroke="#000" stroke-opacity="0.02" fill-opacity="0.15" fill="#222" transform="translate(97.333333333333, 73) scale(-1, -1)" /><polyline points="0, 0, 24.333333333333, 24.333333333333, 0, 24.333333333333, 0, 0" stroke="#000" stroke-opacity="0.02" fill-opacity="0.15" fill="#222" transform="translate(48.666666666667, 73) scale(1, 1)" /><polyline points="0, 0, 24.333333333333, 24.333333333333, 0, 24.333333333333, 0, 0" stroke="#000" stroke-opacity="0.02" fill-opacity="0.15" fill="#222" transform="translate(97.333333333333, 73) scale(-1, 1)" /><polyline points="0, 0, 24.333333333333, 24.333333333333, 0, 24.333333333333, 0, 0" stroke="#000" stroke-opacity="0.02" fill-opacity="0.046" fill="#222" transform="translate(121.66666666667, 48.666666666667) scale(-1, 1)" /><polyline points="0, 0, 24.333333333333, 24.333333333333, 0, 24.333333333333, 0, 0" stroke="#000" stroke-opacity="0.02" fill-opacity="0.046" fill="#222" transform="translate(121.66666666667, 97.333333333333) scale(1, -1)" /><polyline points="0, 0, 24.333333333333, 24.333333333333, 0, 24.333333333333, 0, 0" stroke="#000" stroke-opacity="0.02" fill-opacity="0.072" fill="#ddd" transform="translate(121.66666666667, 97.333333333333) scale(-1, -1)" /><polyline points="0, 0, 24.333333333333, 24.333333333333, 0, 24.333333333333, 0, 0" stroke="#000" stroke-opacity="0.02" fill-opacity="0.072" fill="#ddd" transform="translate(121.66666666667, 48.666666666667) scale(1, 1)" /><polyline points="0, 0, 24.333333333333, 24.333333333333, 0, 24.333333333333, 0, 0" stroke="#000" stroke-opacity="0.02" fill-opacity="0.072" fill="#ddd" transform="translate(146, 73) scale(1, -1)" /><polyline points="0, 0, 24.333333333333, 24.333333333333, 0, 24.333333333333, 0, 0" stroke="#000" stroke-opacity="0.02" fill-opacity="0.072" fill="#ddd" transform="translate(194.66666666667, 73) scale(-1, -1)" /><polyline points="0, 0, 24.333333333333, 24.333333333333, 0, 24.333333333333, 0, 0" stroke="#000" stroke-opacity="0.02" fill-opacity="0.072" fill="#ddd" transform="translate(146, 73) scale(1, 1)" /><polyline points="0, 0, 24.333333333333, 24.333333333333, 0, 24.333333333333, 0, 0" stroke="#000" stroke-opacity="0.02" fill-opacity="0.072" fill="#ddd" transform="translate(194.66666666667, 73) scale(-1, 1)" /><polyline points="0, 0, 24.333333333333, 24.333333333333, 0, 24.333333333333, 0, 0" stroke="#000" stroke-opacity="0.02" fill-opacity="0.054666666666667" fill="#ddd" transform="translate(0, 121.66666666667) scale(1, -1)" /><polyline points="0, 0, 24.333333333333, 24.333333333333, 0, 24.333333333333, 0, 0" stroke="#000" stroke-opacity="0.02" fill-opacity="0.054666666666667" fill="#ddd" transform="translate(48.666666666667, 121.66666666667) scale(-1, -1)" /><polyline points="0, 0, 24.333333333333, 24.333333333333, 0, 24.333333333333, 0, 0" stroke="#000" stroke-opacity="0.02" fill-opacity="0.054666666666667" fill="#ddd" transform="translate(0, 121.66666666667) scale(1, 1)" /><polyline points="0, 0, 24.333333333333, 24.333333333333, 0, 24.333333333333, 0, 0" stroke="#000" stroke-opacity="0.02" fill-opacity="0.054666666666667" fill="#ddd" transform="translate(48.666666666667, 121.66666666667) scale(-1, 1)" /><polyline points="0, 0, 24.333333333333, 24.333333333333, 0, 24.333333333333, 0, 0" stroke="#000" stroke-opacity="0.02" fill-opacity="0.054666666666667" fill="#ddd" transform="translate(73, 97.333333333333) scale(-1, 1)" /><polyline points="0, 0, 24.333333333333, 24.333333333333, 0, 24.333333333333, 0, 0" stroke="#000" stroke-opacity="0.02" fill-opacity="0.054666666666667" fill="#ddd" transform="translate(73, 146) scale(1, -1)" /><polyline points="0, 0, 24.333333333333, 24.333333333333, 0, 24.333333333333, 0, 0" stroke="#000" stroke-opacity="0.02" fill-opacity="0.13266666666667" fill="#222" transform="translate(73, 146) scale(-1, -1)" /><polyline points="0, 0, 24.333333333333, 24.333333333333, 0, 24.333333333333, 0, 0" stroke="#000" stroke-opacity="0.02" fill-opacity="0.13266666666667" fill="#222" transform="translate(73, 97.333333333333) scale(1, 1)" /><polyline points="0, 0, 24.333333333333, 24.333333333333, 0, 24.333333333333, 0, 0" stroke="#000" stroke-opacity="0.02" fill-opacity="0.13266666666667" fill="#222" transform="translate(97.333333333333, 121.66666666667) scale(1, -1)" /><polyline points="0, 0, 24.333333333333, 24.333333333333, 0, 24.333333333333, 0, 0" stroke="#000" stroke-opacity="0.02" fill-opacity="0.13266666666667" fill="#222" transform="translate(146, 121.66666666667) scale(-1, -1)" /><polyline points="0, 0, 24.333333333333, 24.333333333333, 0, 24.333333333333, 0, 0" stroke="#000" stroke-opacity="0.02" fill-opacity="0.13266666666667" fill="#222" transform="translate(97.333333333333, 121.66666666667) scale(1, 1)" /><polyline points="0, 0, 24.333333333333, 24.333333333333, 0, 24.333333333333, 0, 0" stroke="#000" stroke-opacity="0.02" fill-opacity="0.13266666666667" fill="#222" transform="translate(146, 121.66666666667) scale(-1, 1)" /><polyline points="0, 0, 24.333333333333, 24.333333333333, 0, 24.333333333333, 0, 0" stroke="#000" stroke-opacity="0.02" fill-opacity="0.10666666666667" fill="#ddd" transform="translate(170.33333333333, 97.333333333333) scale(-1, 1)" /><polyline points="0, 0, 24.333333333333, 24.333333333333, 0, 24.333333333333, 0, 0" stroke="#000" stroke-opacity="0.02" fill-opacity="0.10666666666667" fill="#ddd" transform="translate(170.33333333333, 146) scale(1, -1)" /><polyline points="0, 0, 24.333333333333, 24.333333333333, 0, 24.333333333333, 0, 0" stroke="#000" stroke-opacity="0.02" fill-opacity="0.098" fill="#222" transform="translate(170.33333333333, 146) scale(-1, -1)" /><polyline points="0, 0, 24.333333333333, 24.333333333333, 0, 24.333333333333, 0, 0" stroke="#000" stroke-opacity="0.02" fill-opacity="0.098" fill="#222" transform="translate(170.33333333333, 97.333333333333) scale(1, 1)" /><polyline points="0, 0, 24.333333333333, 24.333333333333, 0, 24.333333333333, 0, 0" stroke="#000" stroke-opacity="0.02" fill-opacity="0.098" fill="#222" transform="translate(24.333333333333, 146) scale(-1, 1)" /><polyline points="0, 0, 24.333333333333, 24.333333333333, 0, 24.333333333333, 0, 0" stroke="#000" stroke-opacity="0.02" fill-opacity="0.098" fill="#222" transform="translate(24.333333333333, 194.66666666667) scale(1, -1)" /><polyline points="0, 0, 24.333333333333, 24.333333333333, 0, 24.333333333333, 0, 0" stroke="#000" stroke-opacity="0.02" fill-opacity="0.10666666666667" fill="#ddd" transform="translate(24.333333333333, 194.66666666667) scale(-1, -1)" /><polyline points="0, 0, 24.333333333333, 24.333333333333, 0, 24.333333333333, 0, 0" stroke="#000" stroke-opacity="0.02" fill-opacity="0.10666666666667" fill="#ddd" transform="translate(24.333333333333, 146) scale(1, 1)" /><polyline points="0, 0, 24.333333333333, 24.333333333333, 0, 24.333333333333, 0, 0" stroke="#000" stroke-opacity="0.02" fill-opacity="0.10666666666667" fill="#ddd" transform="translate(48.666666666667, 170.33333333333) scale(1, -1)" /><polyline points="0, 0, 24.333333333333, 24.333333333333, 0, 24.333333333333, 0, 0" stroke="#000" stroke-opacity="0.02" fill-opacity="0.10666666666667" fill="#ddd" transform="translate(97.333333333333, 170.33333333333) scale(-1, -1)" /><polyline points="0, 0, 24.333333333333, 24.333333333333, 0, 24.333333333333, 0, 0" stroke="#000" stroke-opacity="0.02" fill-opacity="0.10666666666667" fill="#ddd" transform="translate(48.666666666667, 170.33333333333) scale(1, 1)" /><polyline points="0, 0, 24.333333333333, 24.333333333333, 0, 24.333333333333, 0, 0" stroke="#000" stroke-opacity="0.02" fill-opacity="0.10666666666667" fill="#ddd" transform="translate(97.333333333333, 170.33333333333) scale(-1, 1)" /><polyline points="0, 0, 24.333333333333, 24.333333333333, 0, 24.333333333333, 0, 0" stroke="#000" stroke-opacity="0.02" fill-opacity="0.037333333333333" fill="#ddd" transform="translate(121.66666666667, 146) scale(-1, 1)" /><polyline points="0, 0, 24.333333333333, 24.333333333333, 0, 24.333333333333, 0, 0" stroke="#000" stroke-opacity="0.02" fill-opacity="0.037333333333333" fill="#ddd" transform="translate(121.66666666667, 194.66666666667) scale(1, -1)" /><polyline points="0, 0, 24.333333333333, 24.333333333333, 0, 24.333333333333, 0, 0" stroke="#000" stroke-opacity="0.02" fill-opacity="0.054666666666667" fill="#ddd" transform="translate(121.66666666667, 194.66666666667) scale(-1, -1)" /><polyline points="0, 0, 24.333333333333, 24.333333333333, 0, 24.333333333333, 0, 0" stroke="#000" stroke-opacity="0.02" fill-opacity="0.054666666666667" fill="#ddd" transform="translate(121.66666666667, 146) scale(1, 1)" /><polyline points="0, 0, 24.333333333333, 24.333333333333, 0, 24.333333333333, 0, 0" stroke="#000" stroke-opacity="0.02" fill-opacity="0.054666666666667" fill="#ddd" transform="translate(146, 170.33333333333) scale(1, -1)" /><polyline points="0, 0, 24.333333333333, 24.333333333333, 0, 24.333333333333, 0, 0" stroke="#000" stroke-opacity="0.02" fill-opacity="0.054666666666667" fill="#ddd" transform="translate(194.66666666667, 170.33333333333) scale(-1, -1)" /><polyline points="0, 0, 24.333333333333, 24.333333333333, 0, 24.333333333333, 0, 0" stroke="#000" stroke-opacity="0.02" fill-opacity="0.054666666666667" fill="#ddd" transform="translate(146, 170.33333333333) scale(1, 1)" /><polyline points="0, 0, 24.333333333333, 24.333333333333, 0, 24.333333333333, 0, 0" stroke="#000" stroke-opacity="0.02" fill-opacity="0.054666666666667" fill="#ddd" transform="translate(194.66666666667, 170.33333333333) scale(-1, 1)" /></svg>